# xmcd CD database file generated by Grip 3.2.0
# 
# Track frame offsets:
#       150
#       14027
#       23405
#       43802
#       53780
#       69830
#       85132
#       96310
#       109360
#       134485
#       144470
#       155407
#       176570
#       184820
#       202297
# 
# Disc length: 2850 seconds
# 
# Revision: 1
# Processed by: cddbd v1.5.1PL0 Copyright (c) Steve Scherf et al.
# Submitted via: Grip 3.2.0
# 
DISCID=d70b200f
DTITLE=Bar-J Wranglers - Headin' for the Home Corral
DYEAR=1900
DGENRE=Folk
TTITLE0=Ride an Old Paint
TTITLE1=Headin' for the Home Corral
TTITLE2=Little Joe the Wrangler
TTITLE3=Uncle Pen
TTITLE4=When the Work's All Done This Fall
TTITLE5=Ridin' for the Roundup
TTITLE6=Sweet Georgia Brown
TTITLE7=Pinto Pal
TTITLE8=Song of Wyoming
TTITLE9=Down the Trail to San Antone
TTITLE10=Cattle Call
TTITLE11=I'm My Own Grandpa
TTITLE12=Boil the Cabbage
TTITLE13=The Old Rugged Cross
TTITLE14=Night Herding Song
EXTD=
EXTT0=
EXTT1=
EXTT2=
EXTT3=
EXTT4=
EXTT5=
EXTT6=
EXTT7=
EXTT8=
EXTT9=
EXTT10=
EXTT11=
EXTT12=
EXTT13=
EXTT14=
PLAYORDER=
